<?xml version="1.0" encoding="utf-8"?>
<!-- Generator: Adobe Illustrator 13.0.0, SVG Export Plug-In  -->
<!DOCTYPE svg PUBLIC "-//W3C//DTD SVG 1.1//EN" "http://www.w3.org/Graphics/SVG/1.1/DTD/svg11.dtd" [
	<!ENTITY ns_flows "http://ns.adobe.com/Flows/1.0/">
]>
<svg version="1.1"
	 xmlns="http://www.w3.org/2000/svg" xmlns:xlink="http://www.w3.org/1999/xlink" xmlns:a="http://ns.adobe.com/AdobeSVGViewerExtensions/3.0/"
	 x="0px" y="0px" width="170px" height="42px" viewBox="0 0 170 42" enable-background="new 0 0 170 42" xml:space="preserve">
<defs>
</defs>
<path fill="#967864" d="M94,28h4V0h-4V28z M164,12c-2.255,0-4.327,0.453-6,1.209V12h-4v28h4V25.986c1.673,1.259,3.745,2.014,6,2.014
	c3.314,0,6-4.477,6-10C170,14.688,167.314,12,164,12z M164,24c-3.314,0-6-2.688-6-6c0-2.762,2.688-5,6-5c2.762,0,5,2.238,5,5
	C169,21.313,166.762,24,164,24z M83,14.687C81.926,13.068,80.088,12,78,12c-5.523,0-10,2.688-10,6c0,5.523,4.477,10,10,10
	c2.088,0,3.926-1.779,5-4.477V28h1V0h-1V14.687z M78,24c-3.314,0-6-2.688-6-6c0-2.762,2.687-5,6-5c2.762,0,5,2.238,5,5
	C83,21.313,80.762,24,78,24z M117,14.687c-1.074-1.618-2.912-2.687-5-2.687c-5.523,0-10,2.688-10,6c0,5.523,4.477,10,10,10
	c2.088,0,3.926-1.779,5-4.477V28h1V12h-1V14.687z M112,24c-3.314,0-6-2.688-6-6c0-2.762,2.688-5,6-5c2.762,0,5,2.238,5,5
	C117,21.313,114.762,24,112,24z M144,12c-2.992,0-5.662,0.798-7.494,2.048C135.407,12.795,133.798,12,132,12
	c-2.255,0-4.327,0.453-6,1.209V12h-4v16h4V18c0-2.762,2.688-5,6-5c2.762,0,5,2.238,5,5v10h1V18c0-2.762,2.688-5,6-5
	c2.762,0,5,2.238,5,5v10h1V18C150,14.688,147.314,12,144,12z M27,18c0,3.313-2.238,6-5,6c-3.314,0-6-2.688-6-6v-6h-4v6
	c0,1.682,0.42,3.264,1.152,4.654C12.293,23.495,11.195,24,10,24c-3.314,0-6-2.688-6-6v-6H0v6c0,5.523,4.477,10,10,10
	c1.795,0,3.4-1.318,4.5-3.4c1.832,2.082,4.509,3.4,7.5,3.4c3.314,0,6-4.477,6-10v-6h-1V18z M54,8
	c-6.615,0-12.533,1.334-16.566,3.434L40,14l-4.406-1.469C33.328,14.104,32,15.98,32,18c0,6.584,2.908,12.477,7.492,16.508L42,32
	l0.5,0.5l2-2L44,30l1.346-1.01C42.094,26.428,40,22.461,40,18c0-4.418,6.268-8,14-8c4.418,0,8,3.582,8,8c0,7.732-3.582,14-8,14
	c-2.434,0-4.721-0.623-6.715-1.715L46,32l0.5,0.5l-2,2L44,34l-2.266,2.266C45.24,38.621,49.459,40,54,40c5.523,0,10-9.85,10-22
	C64,12.477,59.523,8,54,8z M54,28c3.314,0,6-4.477,6-10c0-3.313-2.686-6-6-6c-5.523,0-10,2.688-10,6
	c0,3.578,1.895,6.693,4.719,8.461L52,24l-2.262,3.016C51.035,27.629,52.469,28,54,28z M48,18c0-2.762,2.687-5,6-5
	c2.762,0,5,2.238,5,5c0,3.313-2.238,6-5,6C50.686,24,48,21.313,48,18z"/>
</svg>
